<?xml version="1.0" encoding="UTF-8" standalone="no"?>
<!DOCTYPE svg PUBLIC "-//W3C//DTD SVG 1.1//EN"
 "http://www.w3.org/Graphics/SVG/1.1/DTD/svg11.dtd">
<!-- Generated by graphviz version 2.42.3 (20191010.1750)
 -->
<!-- Title: snakemake_dag Pages: 1 -->
<svg width="629pt" height="476pt"
 viewBox="0.00 0.00 628.50 476.00" xmlns="http://www.w3.org/2000/svg" xmlns:xlink="http://www.w3.org/1999/xlink">
<g id="graph0" class="graph" transform="scale(1 1) rotate(0) translate(4 472)">
<title>snakemake_dag</title>
<polygon fill="white" stroke="transparent" points="-4,4 -4,-472 624.5,-472 624.5,4 -4,4"/>
<!-- 0 -->
<g id="node1" class="node">
<title>0</title>
<path fill="none" stroke="#d8b456" stroke-width="2" d="M255,-36C255,-36 225,-36 225,-36 219,-36 213,-30 213,-24 213,-24 213,-12 213,-12 213,-6 219,0 225,0 225,0 255,0 255,0 261,0 267,-6 267,-12 267,-12 267,-24 267,-24 267,-30 261,-36 255,-36"/>
<text text-anchor="middle" x="240" y="-15.5" font-family="sans" font-size="10.00">all</text>
</g>
<!-- 1 -->
<g id="node2" class="node">
<title>1</title>
<path fill="none" stroke="#56b1d8" stroke-width="2" d="M365,-108C365,-108 335,-108 335,-108 329,-108 323,-102 323,-96 323,-96 323,-84 323,-84 323,-78 329,-72 335,-72 335,-72 365,-72 365,-72 371,-72 377,-78 377,-84 377,-84 377,-96 377,-96 377,-102 371,-108 365,-108"/>
<text text-anchor="middle" x="350" y="-87.5" font-family="sans" font-size="10.00">fig2</text>
</g>
<!-- 1&#45;&gt;0 -->
<g id="edge1" class="edge">
<title>1&#45;&gt;0</title>
<path fill="none" stroke="grey" stroke-width="2" d="M323.09,-71.88C308.84,-62.81 291.15,-51.55 275.76,-41.76"/>
<polygon fill="grey" stroke="grey" stroke-width="2" points="277.33,-38.61 267.01,-36.19 273.57,-44.51 277.33,-38.61"/>
</g>
<!-- 2 -->
<g id="node3" class="node">
<title>2</title>
<path fill="none" stroke="#68d856" stroke-width="2" d="M496,-108C496,-108 466,-108 466,-108 460,-108 454,-102 454,-96 454,-96 454,-84 454,-84 454,-78 460,-72 466,-72 466,-72 496,-72 496,-72 502,-72 508,-78 508,-84 508,-84 508,-96 508,-96 508,-102 502,-108 496,-108"/>
<text text-anchor="middle" x="481" y="-87.5" font-family="sans" font-size="10.00">fig3</text>
</g>
<!-- 2&#45;&gt;0 -->
<g id="edge2" class="edge">
<title>2&#45;&gt;0</title>
<path fill="none" stroke="grey" stroke-width="2" d="M453.82,-81.11C410.5,-68.52 325.69,-43.89 276.91,-29.72"/>
<polygon fill="grey" stroke="grey" stroke-width="2" points="277.66,-26.29 267.08,-26.86 275.7,-33.02 277.66,-26.29"/>
</g>
<!-- 3 -->
<g id="node4" class="node">
<title>3</title>
<path fill="none" stroke="#9fd856" stroke-width="2" d="M45,-180C45,-180 15,-180 15,-180 9,-180 3,-174 3,-168 3,-168 3,-156 3,-156 3,-150 9,-144 15,-144 15,-144 45,-144 45,-144 51,-144 57,-150 57,-156 57,-156 57,-168 57,-168 57,-174 51,-180 45,-180"/>
<text text-anchor="middle" x="30" y="-159.5" font-family="sans" font-size="10.00">fig4</text>
</g>
<!-- 3&#45;&gt;0 -->
<g id="edge3" class="edge">
<title>3&#45;&gt;0</title>
<path fill="none" stroke="grey" stroke-width="2" d="M55.33,-143.87C93.01,-118.39 163.91,-70.45 206.05,-41.96"/>
<polygon fill="grey" stroke="grey" stroke-width="2" points="208.26,-44.69 214.58,-36.19 204.33,-38.89 208.26,-44.69"/>
</g>
<!-- 4 -->
<g id="node5" class="node">
<title>4</title>
<path fill="none" stroke="#56d882" stroke-width="2" d="M219,-108C219,-108 189,-108 189,-108 183,-108 177,-102 177,-96 177,-96 177,-84 177,-84 177,-78 183,-72 189,-72 189,-72 219,-72 219,-72 225,-72 231,-78 231,-84 231,-84 231,-96 231,-96 231,-102 225,-108 219,-108"/>
<text text-anchor="middle" x="204" y="-87.5" font-family="sans" font-size="10.00">fig5</text>
</g>
<!-- 4&#45;&gt;0 -->
<g id="edge4" class="edge">
<title>4&#45;&gt;0</title>
<path fill="none" stroke="grey" stroke-width="2" d="M212.9,-71.7C217,-63.73 221.95,-54.1 226.49,-45.26"/>
<polygon fill="grey" stroke="grey" stroke-width="2" points="229.74,-46.6 231.2,-36.1 223.52,-43.4 229.74,-46.6"/>
</g>
<!-- 5 -->
<g id="node6" class="node">
<title>5</title>
<path fill="none" stroke="#56d8c1" stroke-width="2" d="M427.5,-180C427.5,-180 364.5,-180 364.5,-180 358.5,-180 352.5,-174 352.5,-168 352.5,-168 352.5,-156 352.5,-156 352.5,-150 358.5,-144 364.5,-144 364.5,-144 427.5,-144 427.5,-144 433.5,-144 439.5,-150 439.5,-156 439.5,-156 439.5,-168 439.5,-168 439.5,-174 433.5,-180 427.5,-180"/>
<text text-anchor="middle" x="396" y="-159.5" font-family="sans" font-size="10.00">analyze_pbmc</text>
</g>
<!-- 5&#45;&gt;1 -->
<g id="edge5" class="edge">
<title>5&#45;&gt;1</title>
<path fill="none" stroke="grey" stroke-width="2" d="M384.63,-143.7C379.28,-135.56 372.8,-125.69 366.89,-116.7"/>
<polygon fill="grey" stroke="grey" stroke-width="2" points="369.66,-114.54 361.24,-108.1 363.81,-118.38 369.66,-114.54"/>
</g>
<!-- 6 -->
<g id="node7" class="node">
<title>6</title>
<path fill="none" stroke="#88d856" stroke-width="2" d="M608.5,-324C608.5,-324 519.5,-324 519.5,-324 513.5,-324 507.5,-318 507.5,-312 507.5,-312 507.5,-300 507.5,-300 507.5,-294 513.5,-288 519.5,-288 519.5,-288 608.5,-288 608.5,-288 614.5,-288 620.5,-294 620.5,-300 620.5,-300 620.5,-312 620.5,-312 620.5,-318 614.5,-324 608.5,-324"/>
<text text-anchor="middle" x="564" y="-303.5" font-family="sans" font-size="10.00">tfidf_downsampling</text>
</g>
<!-- 6&#45;&gt;2 -->
<g id="edge6" class="edge">
<title>6&#45;&gt;2</title>
<path fill="none" stroke="grey" stroke-width="2" d="M557.35,-287.85C542.93,-250.68 508.71,-162.44 491.4,-117.82"/>
<polygon fill="grey" stroke="grey" stroke-width="2" points="494.56,-116.29 487.68,-108.23 488.04,-118.82 494.56,-116.29"/>
</g>
<!-- 7 -->
<g id="node8" class="node">
<title>7</title>
<path fill="none" stroke="#5673d8" stroke-width="2" d="M48,-396C48,-396 18,-396 18,-396 12,-396 6,-390 6,-384 6,-384 6,-372 6,-372 6,-366 12,-360 18,-360 18,-360 48,-360 48,-360 54,-360 60,-366 60,-372 60,-372 60,-384 60,-384 60,-390 54,-396 48,-396"/>
<text text-anchor="middle" x="33" y="-375.5" font-family="sans" font-size="10.00">process</text>
</g>
<!-- 7&#45;&gt;3 -->
<g id="edge7" class="edge">
<title>7&#45;&gt;3</title>
<path fill="none" stroke="grey" stroke-width="2" d="M32.76,-359.85C32.24,-322.83 31.01,-235.18 30.38,-190.39"/>
<polygon fill="grey" stroke="grey" stroke-width="2" points="33.88,-190.18 30.24,-180.23 26.88,-190.28 33.88,-190.18"/>
</g>
<!-- 8 -->
<g id="node9" class="node">
<title>8</title>
<path fill="none" stroke="#5673d8" stroke-width="2" d="M136,-396C136,-396 106,-396 106,-396 100,-396 94,-390 94,-384 94,-384 94,-372 94,-372 94,-366 100,-360 106,-360 106,-360 136,-360 136,-360 142,-360 148,-366 148,-372 148,-372 148,-384 148,-384 148,-390 142,-396 136,-396"/>
<text text-anchor="middle" x="121" y="-375.5" font-family="sans" font-size="10.00">process</text>
</g>
<!-- 8&#45;&gt;4 -->
<g id="edge8" class="edge">
<title>8&#45;&gt;4</title>
<path fill="none" stroke="grey" stroke-width="2" d="M113.93,-359.67C110.16,-349.47 105.91,-336.22 104,-324 95.25,-268.07 107.89,-163.35 120,-144 131.04,-126.36 150.33,-113.58 167.65,-104.99"/>
<polygon fill="grey" stroke="grey" stroke-width="2" points="169.4,-108.03 177,-100.65 166.45,-101.69 169.4,-108.03"/>
</g>
<!-- 19 -->
<g id="node20" class="node">
<title>19</title>
<path fill="none" stroke="#56d8a2" stroke-width="2" d="M180.5,-324C180.5,-324 125.5,-324 125.5,-324 119.5,-324 113.5,-318 113.5,-312 113.5,-312 113.5,-300 113.5,-300 113.5,-294 119.5,-288 125.5,-288 125.5,-288 180.5,-288 180.5,-288 186.5,-288 192.5,-294 192.5,-300 192.5,-300 192.5,-312 192.5,-312 192.5,-318 186.5,-324 180.5,-324"/>
<text text-anchor="middle" x="153" y="-303.5" font-family="sans" font-size="10.00">downsample</text>
</g>
<!-- 8&#45;&gt;19 -->
<g id="edge27" class="edge">
<title>8&#45;&gt;19</title>
<path fill="none" stroke="grey" stroke-width="2" d="M128.91,-359.7C132.55,-351.73 136.95,-342.1 140.99,-333.26"/>
<polygon fill="grey" stroke="grey" stroke-width="2" points="144.21,-334.65 145.18,-324.1 137.84,-331.74 144.21,-334.65"/>
</g>
<!-- 9 -->
<g id="node10" class="node">
<title>9</title>
<path fill="none" stroke="#d8d356" stroke-width="2" d="M267,-180C267,-180 141,-180 141,-180 135,-180 129,-174 129,-168 129,-168 129,-156 129,-156 129,-150 135,-144 141,-144 141,-144 267,-144 267,-144 273,-144 279,-150 279,-156 279,-156 279,-168 279,-168 279,-174 273,-180 267,-180"/>
<text text-anchor="middle" x="204" y="-159.5" font-family="sans" font-size="10.00">gather_benchmark_timings</text>
</g>
<!-- 9&#45;&gt;4 -->
<g id="edge9" class="edge">
<title>9&#45;&gt;4</title>
<path fill="none" stroke="grey" stroke-width="2" d="M204,-143.7C204,-135.98 204,-126.71 204,-118.11"/>
<polygon fill="grey" stroke="grey" stroke-width="2" points="207.5,-118.1 204,-108.1 200.5,-118.1 207.5,-118.1"/>
</g>
<!-- 10 -->
<g id="node11" class="node">
<title>10</title>
<path fill="none" stroke="#5673d8" stroke-width="2" d="M439,-396C439,-396 409,-396 409,-396 403,-396 397,-390 397,-384 397,-384 397,-372 397,-372 397,-366 403,-360 409,-360 409,-360 439,-360 439,-360 445,-360 451,-366 451,-372 451,-372 451,-384 451,-384 451,-390 445,-396 439,-396"/>
<text text-anchor="middle" x="424" y="-375.5" font-family="sans" font-size="10.00">process</text>
</g>
<!-- 10&#45;&gt;5 -->
<g id="edge10" class="edge">
<title>10&#45;&gt;5</title>
<path fill="none" stroke="grey" stroke-width="2" d="M439.61,-359.77C447.37,-350.03 455.95,-337.18 460,-324 464.7,-308.71 463.32,-303.65 460,-288 452.15,-250.99 430.3,-212.92 414.31,-188.67"/>
<polygon fill="grey" stroke="grey" stroke-width="2" points="417.01,-186.41 408.51,-180.09 411.21,-190.33 417.01,-186.41"/>
</g>
<!-- 10&#45;&gt;6 -->
<g id="edge13" class="edge">
<title>10&#45;&gt;6</title>
<path fill="none" stroke="grey" stroke-width="2" d="M451.33,-363.34C471.05,-353.48 498.08,-339.96 520.72,-328.64"/>
<polygon fill="grey" stroke="grey" stroke-width="2" points="522.42,-331.7 529.8,-324.1 519.29,-325.44 522.42,-331.7"/>
</g>
<!-- 11 -->
<g id="node12" class="node">
<title>11</title>
<path fill="none" stroke="#56d863" stroke-width="2" d="M439,-324C439,-324 409,-324 409,-324 403,-324 397,-318 397,-312 397,-312 397,-300 397,-300 397,-294 403,-288 409,-288 409,-288 439,-288 439,-288 445,-288 451,-294 451,-300 451,-300 451,-312 451,-312 451,-318 445,-324 439,-324"/>
<text text-anchor="middle" x="424" y="-303.5" font-family="sans" font-size="10.00">links</text>
</g>
<!-- 10&#45;&gt;11 -->
<g id="edge21" class="edge">
<title>10&#45;&gt;11</title>
<path fill="none" stroke="grey" stroke-width="2" d="M424,-359.7C424,-351.98 424,-342.71 424,-334.11"/>
<polygon fill="grey" stroke="grey" stroke-width="2" points="427.5,-334.1 424,-324.1 420.5,-334.1 427.5,-334.1"/>
</g>
<!-- 12 -->
<g id="node13" class="node">
<title>12</title>
<path fill="none" stroke="#56d0d8" stroke-width="2" d="M389.5,-252C389.5,-252 334.5,-252 334.5,-252 328.5,-252 322.5,-246 322.5,-240 322.5,-240 322.5,-228 322.5,-228 322.5,-222 328.5,-216 334.5,-216 334.5,-216 389.5,-216 389.5,-216 395.5,-216 401.5,-222 401.5,-228 401.5,-228 401.5,-240 401.5,-240 401.5,-246 395.5,-252 389.5,-252"/>
<text text-anchor="middle" x="362" y="-231.5" font-family="sans" font-size="10.00">analyze_eqtl</text>
</g>
<!-- 10&#45;&gt;12 -->
<g id="edge22" class="edge">
<title>10&#45;&gt;12</title>
<path fill="none" stroke="grey" stroke-width="2" d="M410.2,-359.69C402.79,-349.72 393.98,-336.68 388,-324 378.65,-304.16 371.89,-280.23 367.61,-262.18"/>
<polygon fill="grey" stroke="grey" stroke-width="2" points="370.99,-261.29 365.37,-252.31 364.17,-262.83 370.99,-261.29"/>
</g>
<!-- 11&#45;&gt;5 -->
<g id="edge11" class="edge">
<title>11&#45;&gt;5</title>
<path fill="none" stroke="grey" stroke-width="2" d="M422.17,-287.82C420.09,-269.81 416.28,-240.74 411,-216 409.15,-207.36 406.69,-198.05 404.29,-189.68"/>
<polygon fill="grey" stroke="grey" stroke-width="2" points="407.63,-188.64 401.44,-180.04 400.92,-190.63 407.63,-188.64"/>
</g>
<!-- 11&#45;&gt;12 -->
<g id="edge23" class="edge">
<title>11&#45;&gt;12</title>
<path fill="none" stroke="grey" stroke-width="2" d="M408.67,-287.7C401.24,-279.3 392.18,-269.07 384.02,-259.86"/>
<polygon fill="grey" stroke="grey" stroke-width="2" points="386.4,-257.27 377.15,-252.1 381.16,-261.91 386.4,-257.27"/>
</g>
<!-- 12&#45;&gt;5 -->
<g id="edge12" class="edge">
<title>12&#45;&gt;5</title>
<path fill="none" stroke="grey" stroke-width="2" d="M370.4,-215.7C374.27,-207.73 378.95,-198.1 383.24,-189.26"/>
<polygon fill="grey" stroke="grey" stroke-width="2" points="386.47,-190.63 387.69,-180.1 380.17,-187.57 386.47,-190.63"/>
</g>
<!-- 13 -->
<g id="node14" class="node">
<title>13</title>
<path fill="none" stroke="#d89556" stroke-width="2" d="M54,-468C54,-468 12,-468 12,-468 6,-468 0,-462 0,-456 0,-456 0,-444 0,-444 0,-438 6,-432 12,-432 12,-432 54,-432 54,-432 60,-432 66,-438 66,-444 66,-444 66,-456 66,-456 66,-462 60,-468 54,-468"/>
<text text-anchor="middle" x="33" y="-453" font-family="sans" font-size="10.00">download</text>
<text text-anchor="middle" x="33" y="-442" font-family="sans" font-size="10.00">dset: mito</text>
</g>
<!-- 13&#45;&gt;7 -->
<g id="edge14" class="edge">
<title>13&#45;&gt;7</title>
<path fill="none" stroke="grey" stroke-width="2" d="M33,-431.7C33,-423.98 33,-414.71 33,-406.11"/>
<polygon fill="grey" stroke="grey" stroke-width="2" points="36.5,-406.1 33,-396.1 29.5,-406.1 36.5,-406.1"/>
</g>
<!-- 14 -->
<g id="node15" class="node">
<title>14</title>
<path fill="none" stroke="#5692d8" stroke-width="2" d="M226,-468C226,-468 196,-468 196,-468 190,-468 184,-462 184,-456 184,-456 184,-444 184,-444 184,-438 190,-432 196,-432 196,-432 226,-432 226,-432 232,-432 238,-438 238,-444 238,-444 238,-456 238,-456 238,-462 232,-468 226,-468"/>
<text text-anchor="middle" x="211" y="-447.5" font-family="sans" font-size="10.00">install</text>
</g>
<!-- 14&#45;&gt;7 -->
<g id="edge15" class="edge">
<title>14&#45;&gt;7</title>
<path fill="none" stroke="grey" stroke-width="2" d="M183.97,-438.37C153.52,-426.39 103.85,-406.86 69.86,-393.5"/>
<polygon fill="grey" stroke="grey" stroke-width="2" points="70.88,-390.13 60.29,-389.73 68.31,-396.65 70.88,-390.13"/>
</g>
<!-- 14&#45;&gt;8 -->
<g id="edge17" class="edge">
<title>14&#45;&gt;8</title>
<path fill="none" stroke="grey" stroke-width="2" d="M188.75,-431.7C177.42,-422.88 163.47,-412.03 151.18,-402.47"/>
<polygon fill="grey" stroke="grey" stroke-width="2" points="153.03,-399.48 142.99,-396.1 148.74,-405.01 153.03,-399.48"/>
</g>
<!-- 14&#45;&gt;10 -->
<g id="edge20" class="edge">
<title>14&#45;&gt;10</title>
<path fill="none" stroke="grey" stroke-width="2" d="M238.41,-439.99C276.27,-427.55 344.69,-405.06 387.04,-391.15"/>
<polygon fill="grey" stroke="grey" stroke-width="2" points="388.29,-394.42 396.7,-387.97 386.1,-387.77 388.29,-394.42"/>
</g>
<!-- 20 -->
<g id="node21" class="node">
<title>20</title>
<path fill="none" stroke="#d87556" stroke-width="2" d="M264,-396C264,-396 178,-396 178,-396 172,-396 166,-390 166,-384 166,-384 166,-372 166,-372 166,-366 172,-360 178,-360 178,-360 264,-360 264,-360 270,-360 276,-366 276,-372 276,-372 276,-384 276,-384 276,-390 270,-396 264,-396"/>
<text text-anchor="middle" x="221" y="-375.5" font-family="sans" font-size="10.00">create_annotations</text>
</g>
<!-- 14&#45;&gt;20 -->
<g id="edge28" class="edge">
<title>14&#45;&gt;20</title>
<path fill="none" stroke="grey" stroke-width="2" d="M213.47,-431.7C214.57,-423.98 215.9,-414.71 217.13,-406.11"/>
<polygon fill="grey" stroke="grey" stroke-width="2" points="220.61,-406.5 218.56,-396.1 213.68,-405.51 220.61,-406.5"/>
</g>
<!-- 15 -->
<g id="node16" class="node">
<title>15</title>
<path fill="none" stroke="#d89556" stroke-width="2" d="M143.5,-468C143.5,-468 98.5,-468 98.5,-468 92.5,-468 86.5,-462 86.5,-456 86.5,-456 86.5,-444 86.5,-444 86.5,-438 92.5,-432 98.5,-432 98.5,-432 143.5,-432 143.5,-432 149.5,-432 155.5,-438 155.5,-444 155.5,-444 155.5,-456 155.5,-456 155.5,-462 149.5,-468 143.5,-468"/>
<text text-anchor="middle" x="121" y="-453" font-family="sans" font-size="10.00">download</text>
<text text-anchor="middle" x="121" y="-442" font-family="sans" font-size="10.00">dset: biccn</text>
</g>
<!-- 15&#45;&gt;8 -->
<g id="edge16" class="edge">
<title>15&#45;&gt;8</title>
<path fill="none" stroke="grey" stroke-width="2" d="M121,-431.7C121,-423.98 121,-414.71 121,-406.11"/>
<polygon fill="grey" stroke="grey" stroke-width="2" points="124.5,-406.1 121,-396.1 117.5,-406.1 124.5,-406.1"/>
</g>
<!-- 16 -->
<g id="node17" class="node">
<title>16</title>
<path fill="none" stroke="#bed856" stroke-width="2" d="M227.5,-252C227.5,-252 180.5,-252 180.5,-252 174.5,-252 168.5,-246 168.5,-240 168.5,-240 168.5,-228 168.5,-228 168.5,-222 174.5,-216 180.5,-216 180.5,-216 227.5,-216 227.5,-216 233.5,-216 239.5,-222 239.5,-228 239.5,-228 239.5,-240 239.5,-240 239.5,-246 233.5,-252 227.5,-252"/>
<text text-anchor="middle" x="204" y="-231.5" font-family="sans" font-size="10.00">benchmark</text>
</g>
<!-- 16&#45;&gt;9 -->
<g id="edge18" class="edge">
<title>16&#45;&gt;9</title>
<path fill="none" stroke="grey" stroke-width="2" d="M204,-215.7C204,-207.98 204,-198.71 204,-190.11"/>
<polygon fill="grey" stroke="grey" stroke-width="2" points="207.5,-190.1 204,-180.1 200.5,-190.1 207.5,-190.1"/>
</g>
<!-- 17 -->
<g id="node18" class="node">
<title>17</title>
<path fill="none" stroke="#d89556" stroke-width="2" d="M447.5,-468C447.5,-468 400.5,-468 400.5,-468 394.5,-468 388.5,-462 388.5,-456 388.5,-456 388.5,-444 388.5,-444 388.5,-438 394.5,-432 400.5,-432 400.5,-432 447.5,-432 447.5,-432 453.5,-432 459.5,-438 459.5,-444 459.5,-444 459.5,-456 459.5,-456 459.5,-462 453.5,-468 447.5,-468"/>
<text text-anchor="middle" x="424" y="-453" font-family="sans" font-size="10.00">download</text>
<text text-anchor="middle" x="424" y="-442" font-family="sans" font-size="10.00">dset: pbmc</text>
</g>
<!-- 17&#45;&gt;10 -->
<g id="edge19" class="edge">
<title>17&#45;&gt;10</title>
<path fill="none" stroke="grey" stroke-width="2" d="M424,-431.7C424,-423.98 424,-414.71 424,-406.11"/>
<polygon fill="grey" stroke="grey" stroke-width="2" points="427.5,-406.1 424,-396.1 420.5,-406.1 427.5,-406.1"/>
</g>
<!-- 18 -->
<g id="node19" class="node">
<title>18</title>
<path fill="none" stroke="#d85656" stroke-width="2" d="M328.5,-324C328.5,-324 261.5,-324 261.5,-324 255.5,-324 249.5,-318 249.5,-312 249.5,-312 249.5,-300 249.5,-300 249.5,-294 255.5,-288 261.5,-288 261.5,-288 328.5,-288 328.5,-288 334.5,-288 340.5,-294 340.5,-300 340.5,-300 340.5,-312 340.5,-312 340.5,-318 334.5,-324 328.5,-324"/>
<text text-anchor="middle" x="295" y="-303.5" font-family="sans" font-size="10.00">download_gtex</text>
</g>
<!-- 18&#45;&gt;12 -->
<g id="edge24" class="edge">
<title>18&#45;&gt;12</title>
<path fill="none" stroke="grey" stroke-width="2" d="M311.56,-287.7C319.68,-279.22 329.59,-268.86 338.47,-259.58"/>
<polygon fill="grey" stroke="grey" stroke-width="2" points="341.24,-261.75 345.63,-252.1 336.19,-256.91 341.24,-261.75"/>
</g>
<!-- 19&#45;&gt;16 -->
<g id="edge25" class="edge">
<title>19&#45;&gt;16</title>
<path fill="none" stroke="grey" stroke-width="2" d="M165.61,-287.7C171.6,-279.47 178.88,-269.48 185.48,-260.42"/>
<polygon fill="grey" stroke="grey" stroke-width="2" points="188.48,-262.25 191.54,-252.1 182.82,-258.13 188.48,-262.25"/>
</g>
<!-- 20&#45;&gt;16 -->
<g id="edge26" class="edge">
<title>20&#45;&gt;16</title>
<path fill="none" stroke="grey" stroke-width="2" d="M218.95,-359.87C216.05,-335.67 210.73,-291.21 207.28,-262.39"/>
<polygon fill="grey" stroke="grey" stroke-width="2" points="210.72,-261.7 206.06,-252.19 203.77,-262.53 210.72,-261.7"/>
</g>
</g>
</svg>
