<?xml version="1.0" encoding="UTF-8" standalone="no"?>
<!DOCTYPE svg PUBLIC "-//W3C//DTD SVG 1.1//EN"
 "http://www.w3.org/Graphics/SVG/1.1/DTD/svg11.dtd">
<!-- Generated by graphviz version 2.42.3 (20191010.1750)
 -->
<!-- Title: snakemake_dag Pages: 1 -->
<svg width="1229pt" height="548pt"
 viewBox="0.00 0.00 1228.72 548.00" xmlns="http://www.w3.org/2000/svg" xmlns:xlink="http://www.w3.org/1999/xlink">
<g id="graph0" class="graph" transform="scale(1 1) rotate(0) translate(4 544)">
<title>snakemake_dag</title>
<polygon fill="white" stroke="transparent" points="-4,4 -4,-544 1224.72,-544 1224.72,4 -4,4"/>
<!-- 0 -->
<g id="node1" class="node">
<title>0</title>
<path fill="none" stroke="#56d0d8" stroke-width="2" d="M614.72,-36C614.72,-36 584.72,-36 584.72,-36 578.72,-36 572.72,-30 572.72,-24 572.72,-24 572.72,-12 572.72,-12 572.72,-6 578.72,0 584.72,0 584.72,0 614.72,0 614.72,0 620.72,0 626.72,-6 626.72,-12 626.72,-12 626.72,-24 626.72,-24 626.72,-30 620.72,-36 614.72,-36"/>
<text text-anchor="middle" x="599.72" y="-15.5" font-family="sans" font-size="10.00">all</text>
</g>
<!-- 1 -->
<g id="node2" class="node">
<title>1</title>
<path fill="none" stroke="#70d856" stroke-width="2" d="M520.72,-108C520.72,-108 490.72,-108 490.72,-108 484.72,-108 478.72,-102 478.72,-96 478.72,-96 478.72,-84 478.72,-84 478.72,-78 484.72,-72 490.72,-72 490.72,-72 520.72,-72 520.72,-72 526.72,-72 532.72,-78 532.72,-84 532.72,-84 532.72,-96 532.72,-96 532.72,-102 526.72,-108 520.72,-108"/>
<text text-anchor="middle" x="505.72" y="-87.5" font-family="sans" font-size="10.00">fig2</text>
</g>
<!-- 1&#45;&gt;0 -->
<g id="edge1" class="edge">
<title>1&#45;&gt;0</title>
<path fill="none" stroke="grey" stroke-width="2" d="M528.95,-71.7C540.9,-62.8 555.64,-51.82 568.56,-42.2"/>
<polygon fill="grey" stroke="grey" stroke-width="2" points="570.82,-44.88 576.75,-36.1 566.64,-39.27 570.82,-44.88"/>
</g>
<!-- 2 -->
<g id="node3" class="node">
<title>2</title>
<path fill="none" stroke="#56d88a" stroke-width="2" d="M642.72,-180C642.72,-180 556.72,-180 556.72,-180 550.72,-180 544.72,-174 544.72,-168 544.72,-168 544.72,-156 544.72,-156 544.72,-150 550.72,-144 556.72,-144 556.72,-144 642.72,-144 642.72,-144 648.72,-144 654.72,-150 654.72,-156 654.72,-156 654.72,-168 654.72,-168 654.72,-174 648.72,-180 642.72,-180"/>
<text text-anchor="middle" x="599.72" y="-159.5" font-family="sans" font-size="10.00">evaluate_dimreduc</text>
</g>
<!-- 2&#45;&gt;0 -->
<g id="edge2" class="edge">
<title>2&#45;&gt;0</title>
<path fill="none" stroke="grey" stroke-width="2" d="M599.72,-143.87C599.72,-119.67 599.72,-75.21 599.72,-46.39"/>
<polygon fill="grey" stroke="grey" stroke-width="2" points="603.22,-46.19 599.72,-36.19 596.22,-46.19 603.22,-46.19"/>
</g>
<!-- 3 -->
<g id="node4" class="node">
<title>3</title>
<path fill="none" stroke="#d88556" stroke-width="2" d="M865.72,-108C865.72,-108 835.72,-108 835.72,-108 829.72,-108 823.72,-102 823.72,-96 823.72,-96 823.72,-84 823.72,-84 823.72,-78 829.72,-72 835.72,-72 835.72,-72 865.72,-72 865.72,-72 871.72,-72 877.72,-78 877.72,-84 877.72,-84 877.72,-96 877.72,-96 877.72,-102 871.72,-108 865.72,-108"/>
<text text-anchor="middle" x="850.72" y="-87.5" font-family="sans" font-size="10.00">fig4</text>
</g>
<!-- 3&#45;&gt;0 -->
<g id="edge3" class="edge">
<title>3&#45;&gt;0</title>
<path fill="none" stroke="grey" stroke-width="2" d="M823.38,-81.38C778.21,-68.78 687.93,-43.6 636.97,-29.39"/>
<polygon fill="grey" stroke="grey" stroke-width="2" points="637.59,-25.93 627.02,-26.62 635.71,-32.67 637.59,-25.93"/>
</g>
<!-- 4 -->
<g id="node5" class="node">
<title>4</title>
<path fill="none" stroke="#afd856" stroke-width="2" d="M955.72,-108C955.72,-108 925.72,-108 925.72,-108 919.72,-108 913.72,-102 913.72,-96 913.72,-96 913.72,-84 913.72,-84 913.72,-78 919.72,-72 925.72,-72 925.72,-72 955.72,-72 955.72,-72 961.72,-72 967.72,-78 967.72,-84 967.72,-84 967.72,-96 967.72,-96 967.72,-102 961.72,-108 955.72,-108"/>
<text text-anchor="middle" x="940.72" y="-87.5" font-family="sans" font-size="10.00">fig5</text>
</g>
<!-- 4&#45;&gt;0 -->
<g id="edge4" class="edge">
<title>4&#45;&gt;0</title>
<path fill="none" stroke="grey" stroke-width="2" d="M913.71,-79.78C905.14,-77.05 895.59,-74.21 886.72,-72 798.02,-49.94 691.83,-32.65 636.84,-24.37"/>
<polygon fill="grey" stroke="grey" stroke-width="2" points="637.26,-20.89 626.86,-22.88 636.23,-27.82 637.26,-20.89"/>
</g>
<!-- 5 -->
<g id="node6" class="node">
<title>5</title>
<path fill="none" stroke="#56a2d8" stroke-width="2" d="M756.72,-108C756.72,-108 726.72,-108 726.72,-108 720.72,-108 714.72,-102 714.72,-96 714.72,-96 714.72,-84 714.72,-84 714.72,-78 720.72,-72 726.72,-72 726.72,-72 756.72,-72 756.72,-72 762.72,-72 768.72,-78 768.72,-84 768.72,-84 768.72,-96 768.72,-96 768.72,-102 762.72,-108 756.72,-108"/>
<text text-anchor="middle" x="741.72" y="-87.5" font-family="sans" font-size="10.00">fig_s1</text>
</g>
<!-- 5&#45;&gt;0 -->
<g id="edge5" class="edge">
<title>5&#45;&gt;0</title>
<path fill="none" stroke="grey" stroke-width="2" d="M714.67,-75.67C692.41,-64.69 660.64,-49.03 636.14,-36.96"/>
<polygon fill="grey" stroke="grey" stroke-width="2" points="637.66,-33.8 627.14,-32.52 634.56,-40.08 637.66,-33.8"/>
</g>
<!-- 6 -->
<g id="node7" class="node">
<title>6</title>
<path fill="none" stroke="#ced856" stroke-width="2" d="M72.72,-180C72.72,-180 42.72,-180 42.72,-180 36.72,-180 30.72,-174 30.72,-168 30.72,-168 30.72,-156 30.72,-156 30.72,-150 36.72,-144 42.72,-144 42.72,-144 72.72,-144 72.72,-144 78.72,-144 84.72,-150 84.72,-156 84.72,-156 84.72,-168 84.72,-168 84.72,-174 78.72,-180 72.72,-180"/>
<text text-anchor="middle" x="57.72" y="-159.5" font-family="sans" font-size="10.00">fig_s2</text>
</g>
<!-- 6&#45;&gt;0 -->
<g id="edge6" class="edge">
<title>6&#45;&gt;0</title>
<path fill="none" stroke="grey" stroke-width="2" d="M85.13,-153.26C141.12,-137.5 272.69,-100.77 383.72,-72 446.35,-55.77 519.53,-38.08 562.62,-27.79"/>
<polygon fill="grey" stroke="grey" stroke-width="2" points="563.46,-31.19 572.38,-25.47 561.84,-24.38 563.46,-31.19"/>
</g>
<!-- 7 -->
<g id="node8" class="node">
<title>7</title>
<path fill="none" stroke="#d86656" stroke-width="2" d="M287.22,-180C287.22,-180 224.22,-180 224.22,-180 218.22,-180 212.22,-174 212.22,-168 212.22,-168 212.22,-156 212.22,-156 212.22,-150 218.22,-144 224.22,-144 224.22,-144 287.22,-144 287.22,-144 293.22,-144 299.22,-150 299.22,-156 299.22,-156 299.22,-168 299.22,-168 299.22,-174 293.22,-180 287.22,-180"/>
<text text-anchor="middle" x="255.72" y="-159.5" font-family="sans" font-size="10.00">analyze_pbmc</text>
</g>
<!-- 7&#45;&gt;0 -->
<g id="edge7" class="edge">
<title>7&#45;&gt;0</title>
<path fill="none" stroke="grey" stroke-width="2" d="M296.71,-143.85C339.75,-125.87 409.44,-96.82 469.72,-72 501.19,-59.04 537.01,-44.45 563.07,-33.86"/>
<polygon fill="grey" stroke="grey" stroke-width="2" points="564.6,-37.01 572.55,-30.01 561.97,-30.53 564.6,-37.01"/>
</g>
<!-- 7&#45;&gt;1 -->
<g id="edge8" class="edge">
<title>7&#45;&gt;1</title>
<path fill="none" stroke="grey" stroke-width="2" d="M299.26,-148.81C347.25,-135.37 423.62,-113.99 468.79,-101.34"/>
<polygon fill="grey" stroke="grey" stroke-width="2" points="469.79,-104.69 478.48,-98.63 467.9,-97.95 469.79,-104.69"/>
</g>
<!-- 8 -->
<g id="node9" class="node">
<title>8</title>
<path fill="none" stroke="#56d86b" stroke-width="2" d="M824.22,-252C824.22,-252 753.22,-252 753.22,-252 747.22,-252 741.22,-246 741.22,-240 741.22,-240 741.22,-228 741.22,-228 741.22,-222 747.22,-216 753.22,-216 753.22,-216 824.22,-216 824.22,-216 830.22,-216 836.22,-222 836.22,-228 836.22,-228 836.22,-240 836.22,-240 836.22,-246 830.22,-252 824.22,-252"/>
<text text-anchor="middle" x="788.72" y="-231.5" font-family="sans" font-size="10.00">downsample_lsi</text>
</g>
<!-- 8&#45;&gt;2 -->
<g id="edge9" class="edge">
<title>8&#45;&gt;2</title>
<path fill="none" stroke="grey" stroke-width="2" d="M742.48,-215.88C716.18,-206.14 683.07,-193.87 655.36,-183.61"/>
<polygon fill="grey" stroke="grey" stroke-width="2" points="656.39,-180.26 645.8,-180.07 653.96,-186.82 656.39,-180.26"/>
</g>
<!-- 9 -->
<g id="node10" class="node">
<title>9</title>
<path fill="none" stroke="#56d85b" stroke-width="2" d="M436.72,-252C436.72,-252 338.72,-252 338.72,-252 332.72,-252 326.72,-246 326.72,-240 326.72,-240 326.72,-228 326.72,-228 326.72,-222 332.72,-216 338.72,-216 338.72,-216 436.72,-216 436.72,-216 442.72,-216 448.72,-222 448.72,-228 448.72,-228 448.72,-240 448.72,-240 448.72,-246 442.72,-252 436.72,-252"/>
<text text-anchor="middle" x="387.72" y="-231.5" font-family="sans" font-size="10.00">downsample_cistopic</text>
</g>
<!-- 9&#45;&gt;2 -->
<g id="edge10" class="edge">
<title>9&#45;&gt;2</title>
<path fill="none" stroke="grey" stroke-width="2" d="M439.31,-215.97C469.18,-206.1 506.98,-193.62 538.37,-183.25"/>
<polygon fill="grey" stroke="grey" stroke-width="2" points="539.5,-186.57 547.89,-180.11 537.3,-179.92 539.5,-186.57"/>
</g>
<!-- 10 -->
<g id="node11" class="node">
<title>10</title>
<path fill="none" stroke="#80d856" stroke-width="2" d="M582.72,-252C582.72,-252 478.72,-252 478.72,-252 472.72,-252 466.72,-246 466.72,-240 466.72,-240 466.72,-228 466.72,-228 466.72,-222 472.72,-216 478.72,-216 478.72,-216 582.72,-216 582.72,-216 588.72,-216 594.72,-222 594.72,-228 594.72,-228 594.72,-240 594.72,-240 594.72,-246 588.72,-252 582.72,-252"/>
<text text-anchor="middle" x="530.72" y="-231.5" font-family="sans" font-size="10.00">downsample_snapatac</text>
</g>
<!-- 10&#45;&gt;2 -->
<g id="edge11" class="edge">
<title>10&#45;&gt;2</title>
<path fill="none" stroke="grey" stroke-width="2" d="M547.77,-215.7C556.21,-207.14 566.54,-196.66 575.76,-187.3"/>
<polygon fill="grey" stroke="grey" stroke-width="2" points="578.33,-189.68 582.86,-180.1 573.34,-184.77 578.33,-189.68"/>
</g>
<!-- 11 -->
<g id="node12" class="node">
<title>11</title>
<path fill="none" stroke="#9fd856" stroke-width="2" d="M710.72,-252C710.72,-252 624.72,-252 624.72,-252 618.72,-252 612.72,-246 612.72,-240 612.72,-240 612.72,-228 612.72,-228 612.72,-222 618.72,-216 624.72,-216 624.72,-216 710.72,-216 710.72,-216 716.72,-216 722.72,-222 722.72,-228 722.72,-228 722.72,-240 722.72,-240 722.72,-246 716.72,-252 710.72,-252"/>
<text text-anchor="middle" x="667.72" y="-231.5" font-family="sans" font-size="10.00">downsample_scale</text>
</g>
<!-- 11&#45;&gt;2 -->
<g id="edge12" class="edge">
<title>11&#45;&gt;2</title>
<path fill="none" stroke="grey" stroke-width="2" d="M650.91,-215.7C642.59,-207.14 632.41,-196.66 623.33,-187.3"/>
<polygon fill="grey" stroke="grey" stroke-width="2" points="625.81,-184.84 616.33,-180.1 620.79,-189.72 625.81,-184.84"/>
</g>
<!-- 12 -->
<g id="node13" class="node">
<title>12</title>
<path fill="none" stroke="#56b1d8" stroke-width="2" d="M917.72,-396C917.72,-396 887.72,-396 887.72,-396 881.72,-396 875.72,-390 875.72,-384 875.72,-384 875.72,-372 875.72,-372 875.72,-366 881.72,-360 887.72,-360 887.72,-360 917.72,-360 917.72,-360 923.72,-360 929.72,-366 929.72,-372 929.72,-372 929.72,-384 929.72,-384 929.72,-390 923.72,-396 917.72,-396"/>
<text text-anchor="middle" x="902.72" y="-375.5" font-family="sans" font-size="10.00">process</text>
</g>
<!-- 12&#45;&gt;3 -->
<g id="edge13" class="edge">
<title>12&#45;&gt;3</title>
<path fill="none" stroke="grey" stroke-width="2" d="M903.16,-359.9C903.69,-320.76 902.37,-222.03 878.72,-144 875.95,-134.88 871.58,-125.51 867.11,-117.23"/>
<polygon fill="grey" stroke="grey" stroke-width="2" points="870.09,-115.38 862.1,-108.41 864,-118.84 870.09,-115.38"/>
</g>
<!-- 13 -->
<g id="node14" class="node">
<title>13</title>
<path fill="none" stroke="#56b1d8" stroke-width="2" d="M1035.72,-396C1035.72,-396 1005.72,-396 1005.72,-396 999.72,-396 993.72,-390 993.72,-384 993.72,-384 993.72,-372 993.72,-372 993.72,-366 999.72,-360 1005.72,-360 1005.72,-360 1035.72,-360 1035.72,-360 1041.72,-360 1047.72,-366 1047.72,-372 1047.72,-372 1047.72,-384 1047.72,-384 1047.72,-390 1041.72,-396 1035.72,-396"/>
<text text-anchor="middle" x="1020.72" y="-375.5" font-family="sans" font-size="10.00">process</text>
</g>
<!-- 13&#45;&gt;4 -->
<g id="edge14" class="edge">
<title>13&#45;&gt;4</title>
<path fill="none" stroke="grey" stroke-width="2" d="M993.48,-360.51C980.96,-351.4 967.25,-338.9 959.72,-324 925.53,-256.44 931.08,-163.62 936.6,-118.23"/>
<polygon fill="grey" stroke="grey" stroke-width="2" points="940.08,-118.63 937.91,-108.26 933.14,-117.72 940.08,-118.63"/>
</g>
<!-- 28 -->
<g id="node29" class="node">
<title>28</title>
<path fill="none" stroke="#d89556" stroke-width="2" d="M1192.22,-324C1192.22,-324 1109.22,-324 1109.22,-324 1103.22,-324 1097.22,-318 1097.22,-312 1097.22,-312 1097.22,-300 1097.22,-300 1097.22,-294 1103.22,-288 1109.22,-288 1109.22,-288 1192.22,-288 1192.22,-288 1198.22,-288 1204.22,-294 1204.22,-300 1204.22,-300 1204.22,-312 1204.22,-312 1204.22,-318 1198.22,-324 1192.22,-324"/>
<text text-anchor="middle" x="1150.72" y="-303.5" font-family="sans" font-size="10.00">downsample_cells</text>
</g>
<!-- 13&#45;&gt;28 -->
<g id="edge48" class="edge">
<title>13&#45;&gt;28</title>
<path fill="none" stroke="grey" stroke-width="2" d="M1047.97,-362.33C1065.92,-352.66 1089.74,-339.83 1109.93,-328.96"/>
<polygon fill="grey" stroke="grey" stroke-width="2" points="1111.77,-331.94 1118.92,-324.12 1108.45,-325.78 1111.77,-331.94"/>
</g>
<!-- 14 -->
<g id="node15" class="node">
<title>14</title>
<path fill="none" stroke="#5692d8" stroke-width="2" d="M1106.72,-180C1106.72,-180 980.72,-180 980.72,-180 974.72,-180 968.72,-174 968.72,-168 968.72,-168 968.72,-156 968.72,-156 968.72,-150 974.72,-144 980.72,-144 980.72,-144 1106.72,-144 1106.72,-144 1112.72,-144 1118.72,-150 1118.72,-156 1118.72,-156 1118.72,-168 1118.72,-168 1118.72,-174 1112.72,-180 1106.72,-180"/>
<text text-anchor="middle" x="1043.72" y="-159.5" font-family="sans" font-size="10.00">gather_benchmark_timings</text>
</g>
<!-- 14&#45;&gt;4 -->
<g id="edge15" class="edge">
<title>14&#45;&gt;4</title>
<path fill="none" stroke="grey" stroke-width="2" d="M1018.52,-143.88C1005.3,-134.89 988.92,-123.76 974.61,-114.03"/>
<polygon fill="grey" stroke="grey" stroke-width="2" points="976.25,-110.92 966.01,-108.19 972.31,-116.71 976.25,-110.92"/>
</g>
<!-- 15 -->
<g id="node16" class="node">
<title>15</title>
<path fill="none" stroke="#56b1d8" stroke-width="2" d="M292.72,-396C292.72,-396 262.72,-396 262.72,-396 256.72,-396 250.72,-390 250.72,-384 250.72,-384 250.72,-372 250.72,-372 250.72,-366 256.72,-360 262.72,-360 262.72,-360 292.72,-360 292.72,-360 298.72,-360 304.72,-366 304.72,-372 304.72,-372 304.72,-384 304.72,-384 304.72,-390 298.72,-396 292.72,-396"/>
<text text-anchor="middle" x="277.72" y="-375.5" font-family="sans" font-size="10.00">process</text>
</g>
<!-- 15&#45;&gt;5 -->
<g id="edge16" class="edge">
<title>15&#45;&gt;5</title>
<path fill="none" stroke="grey" stroke-width="2" d="M304.78,-377.37C374.9,-377.55 567.44,-373.16 717.72,-324 779.75,-303.71 812.76,-308.34 845.72,-252 875.11,-201.75 815.76,-144.99 775.23,-114.09"/>
<polygon fill="grey" stroke="grey" stroke-width="2" points="777.27,-111.24 767.15,-108.08 773.09,-116.86 777.27,-111.24"/>
</g>
<!-- 15&#45;&gt;6 -->
<g id="edge17" class="edge">
<title>15&#45;&gt;6</title>
<path fill="none" stroke="grey" stroke-width="2" d="M250.52,-375.74C189.26,-372.29 43.49,-360.34 13.72,-324 -18.65,-284.49 14.41,-223.07 38.14,-188.64"/>
<polygon fill="grey" stroke="grey" stroke-width="2" points="41.28,-190.26 44.23,-180.09 35.58,-186.2 41.28,-190.26"/>
</g>
<!-- 15&#45;&gt;7 -->
<g id="edge18" class="edge">
<title>15&#45;&gt;7</title>
<path fill="none" stroke="grey" stroke-width="2" d="M280.41,-359.83C284.53,-330.12 290.8,-267.37 279.72,-216 277.75,-206.92 274.1,-197.52 270.23,-189.2"/>
<polygon fill="grey" stroke="grey" stroke-width="2" points="273.25,-187.42 265.67,-180.02 266.98,-190.53 273.25,-187.42"/>
</g>
<!-- 16 -->
<g id="node17" class="node">
<title>16</title>
<path fill="none" stroke="#8fd856" stroke-width="2" d="M64.72,-324C64.72,-324 34.72,-324 34.72,-324 28.72,-324 22.72,-318 22.72,-312 22.72,-312 22.72,-300 22.72,-300 22.72,-294 28.72,-288 34.72,-288 34.72,-288 64.72,-288 64.72,-288 70.72,-288 76.72,-294 76.72,-300 76.72,-300 76.72,-312 76.72,-312 76.72,-318 70.72,-324 64.72,-324"/>
<text text-anchor="middle" x="49.72" y="-303.5" font-family="sans" font-size="10.00">links</text>
</g>
<!-- 15&#45;&gt;16 -->
<g id="edge38" class="edge">
<title>15&#45;&gt;16</title>
<path fill="none" stroke="grey" stroke-width="2" d="M250.47,-370.34C213.78,-361.14 146.65,-343.45 90.72,-324 89.31,-323.51 87.87,-323 86.43,-322.47"/>
<polygon fill="grey" stroke="grey" stroke-width="2" points="87.48,-319.12 76.89,-318.79 84.96,-325.65 87.48,-319.12"/>
</g>
<!-- 17 -->
<g id="node18" class="node">
<title>17</title>
<path fill="none" stroke="#56d8c9" stroke-width="2" d="M258.72,-252C258.72,-252 166.72,-252 166.72,-252 160.72,-252 154.72,-246 154.72,-240 154.72,-240 154.72,-228 154.72,-228 154.72,-222 160.72,-216 166.72,-216 166.72,-216 258.72,-216 258.72,-216 264.72,-216 270.72,-222 270.72,-228 270.72,-228 270.72,-240 270.72,-240 270.72,-246 264.72,-252 258.72,-252"/>
<text text-anchor="middle" x="212.72" y="-231.5" font-family="sans" font-size="10.00">multimodal_transfer</text>
</g>
<!-- 15&#45;&gt;17 -->
<g id="edge39" class="edge">
<title>15&#45;&gt;17</title>
<path fill="none" stroke="grey" stroke-width="2" d="M269.87,-359.87C258.7,-335.46 238.09,-290.43 224.91,-261.64"/>
<polygon fill="grey" stroke="grey" stroke-width="2" points="227.93,-259.83 220.58,-252.19 221.56,-262.74 227.93,-259.83"/>
</g>
<!-- 18 -->
<g id="node19" class="node">
<title>18</title>
<path fill="none" stroke="#56d87b" stroke-width="2" d="M125.22,-252C125.22,-252 70.22,-252 70.22,-252 64.22,-252 58.22,-246 58.22,-240 58.22,-240 58.22,-228 58.22,-228 58.22,-222 64.22,-216 70.22,-216 70.22,-216 125.22,-216 125.22,-216 131.22,-216 137.22,-222 137.22,-228 137.22,-228 137.22,-240 137.22,-240 137.22,-246 131.22,-252 125.22,-252"/>
<text text-anchor="middle" x="97.72" y="-231.5" font-family="sans" font-size="10.00">analyze_eqtl</text>
</g>
<!-- 15&#45;&gt;18 -->
<g id="edge40" class="edge">
<title>15&#45;&gt;18</title>
<path fill="none" stroke="grey" stroke-width="2" d="M250.59,-375.09C216.27,-371.22 157.58,-359.5 123.72,-324 107.87,-307.39 101.61,-281.67 99.17,-262.14"/>
<polygon fill="grey" stroke="grey" stroke-width="2" points="102.64,-261.64 98.18,-252.03 95.68,-262.33 102.64,-261.64"/>
</g>
<!-- 19 -->
<g id="node20" class="node">
<title>19</title>
<path fill="none" stroke="#d8c356" stroke-width="2" d="M696.22,-324C696.22,-324 607.22,-324 607.22,-324 601.22,-324 595.22,-318 595.22,-312 595.22,-312 595.22,-300 595.22,-300 595.22,-294 601.22,-288 607.22,-288 607.22,-288 696.22,-288 696.22,-288 702.22,-288 708.22,-294 708.22,-300 708.22,-300 708.22,-312 708.22,-312 708.22,-318 702.22,-324 696.22,-324"/>
<text text-anchor="middle" x="651.72" y="-303.5" font-family="sans" font-size="10.00">tfidf_downsampling</text>
</g>
<!-- 15&#45;&gt;19 -->
<g id="edge43" class="edge">
<title>15&#45;&gt;19</title>
<path fill="none" stroke="grey" stroke-width="2" d="M305.05,-373.06C357.4,-365.36 475.6,-347.18 585.02,-324.05"/>
<polygon fill="grey" stroke="grey" stroke-width="2" points="585.85,-327.46 594.9,-321.95 584.39,-320.61 585.85,-327.46"/>
</g>
<!-- 16&#45;&gt;7 -->
<g id="edge19" class="edge">
<title>16&#45;&gt;7</title>
<path fill="none" stroke="grey" stroke-width="2" d="M43.8,-287.95C38.2,-268.43 32.8,-236.51 48.72,-216 67.4,-191.93 147.34,-176.93 202.23,-169.27"/>
<polygon fill="grey" stroke="grey" stroke-width="2" points="202.73,-172.73 212.17,-167.92 201.79,-165.79 202.73,-172.73"/>
</g>
<!-- 16&#45;&gt;18 -->
<g id="edge41" class="edge">
<title>16&#45;&gt;18</title>
<path fill="none" stroke="grey" stroke-width="2" d="M61.58,-287.7C67.22,-279.47 74.07,-269.48 80.28,-260.42"/>
<polygon fill="grey" stroke="grey" stroke-width="2" points="83.22,-262.33 85.99,-252.1 77.44,-258.37 83.22,-262.33"/>
</g>
<!-- 17&#45;&gt;7 -->
<g id="edge20" class="edge">
<title>17&#45;&gt;7</title>
<path fill="none" stroke="grey" stroke-width="2" d="M223.34,-215.7C228.34,-207.56 234.41,-197.69 239.93,-188.7"/>
<polygon fill="grey" stroke="grey" stroke-width="2" points="242.96,-190.46 245.21,-180.1 236.99,-186.79 242.96,-190.46"/>
</g>
<!-- 18&#45;&gt;7 -->
<g id="edge21" class="edge">
<title>18&#45;&gt;7</title>
<path fill="none" stroke="grey" stroke-width="2" d="M136.37,-215.88C157.97,-206.31 185.07,-194.3 207.98,-184.15"/>
<polygon fill="grey" stroke="grey" stroke-width="2" points="209.46,-187.32 217.19,-180.07 206.63,-180.92 209.46,-187.32"/>
</g>
<!-- 19&#45;&gt;8 -->
<g id="edge22" class="edge">
<title>19&#45;&gt;8</title>
<path fill="none" stroke="grey" stroke-width="2" d="M685.23,-287.88C703.56,-278.51 726.45,-266.81 746.04,-256.8"/>
<polygon fill="grey" stroke="grey" stroke-width="2" points="747.76,-259.86 755.07,-252.19 744.58,-253.62 747.76,-259.86"/>
</g>
<!-- 19&#45;&gt;9 -->
<g id="edge24" class="edge">
<title>19&#45;&gt;9</title>
<path fill="none" stroke="grey" stroke-width="2" d="M595.08,-289.98C555.16,-279.4 501.41,-265.15 458.64,-253.81"/>
<polygon fill="grey" stroke="grey" stroke-width="2" points="459.42,-250.39 448.86,-251.21 457.63,-257.16 459.42,-250.39"/>
</g>
<!-- 19&#45;&gt;10 -->
<g id="edge26" class="edge">
<title>19&#45;&gt;10</title>
<path fill="none" stroke="grey" stroke-width="2" d="M622.12,-287.88C606.15,-278.64 586.26,-267.13 569.11,-257.21"/>
<polygon fill="grey" stroke="grey" stroke-width="2" points="570.84,-254.17 560.43,-252.19 567.33,-260.23 570.84,-254.17"/>
</g>
<!-- 19&#45;&gt;11 -->
<g id="edge28" class="edge">
<title>19&#45;&gt;11</title>
<path fill="none" stroke="grey" stroke-width="2" d="M655.67,-287.7C657.43,-279.98 659.55,-270.71 661.52,-262.11"/>
<polygon fill="grey" stroke="grey" stroke-width="2" points="664.99,-262.63 663.81,-252.1 658.17,-261.07 664.99,-262.63"/>
</g>
<!-- 20 -->
<g id="node21" class="node">
<title>20</title>
<path fill="none" stroke="#56d8b9" stroke-width="2" d="M564.72,-324C564.72,-324 496.72,-324 496.72,-324 490.72,-324 484.72,-318 484.72,-312 484.72,-312 484.72,-300 484.72,-300 484.72,-294 490.72,-288 496.72,-288 496.72,-288 564.72,-288 564.72,-288 570.72,-288 576.72,-294 576.72,-300 576.72,-300 576.72,-312 576.72,-312 576.72,-318 570.72,-324 564.72,-324"/>
<text text-anchor="middle" x="530.72" y="-303.5" font-family="sans" font-size="10.00">download_chen</text>
</g>
<!-- 20&#45;&gt;8 -->
<g id="edge23" class="edge">
<title>20&#45;&gt;8</title>
<path fill="none" stroke="grey" stroke-width="2" d="M576.81,-290.8C580.15,-289.84 583.48,-288.89 586.72,-288 647.73,-271.18 665.97,-269.61 731.2,-252.07"/>
<polygon fill="grey" stroke="grey" stroke-width="2" points="732.44,-255.36 741.18,-249.36 730.61,-248.6 732.44,-255.36"/>
</g>
<!-- 20&#45;&gt;9 -->
<g id="edge25" class="edge">
<title>20&#45;&gt;9</title>
<path fill="none" stroke="grey" stroke-width="2" d="M495.73,-287.88C476.52,-278.47 452.49,-266.71 431.98,-256.67"/>
<polygon fill="grey" stroke="grey" stroke-width="2" points="433.35,-253.44 422.83,-252.19 430.27,-259.73 433.35,-253.44"/>
</g>
<!-- 20&#45;&gt;10 -->
<g id="edge27" class="edge">
<title>20&#45;&gt;10</title>
<path fill="none" stroke="grey" stroke-width="2" d="M530.72,-287.7C530.72,-279.98 530.72,-270.71 530.72,-262.11"/>
<polygon fill="grey" stroke="grey" stroke-width="2" points="534.22,-262.1 530.72,-252.1 527.22,-262.1 534.22,-262.1"/>
</g>
<!-- 20&#45;&gt;11 -->
<g id="edge29" class="edge">
<title>20&#45;&gt;11</title>
<path fill="none" stroke="grey" stroke-width="2" d="M564.23,-287.88C582.56,-278.51 605.45,-266.81 625.04,-256.8"/>
<polygon fill="grey" stroke="grey" stroke-width="2" points="626.76,-259.86 634.07,-252.19 623.58,-253.62 626.76,-259.86"/>
</g>
<!-- 21 -->
<g id="node22" class="node">
<title>21</title>
<path fill="none" stroke="#5673d8" stroke-width="2" d="M889.72,-468C889.72,-468 847.72,-468 847.72,-468 841.72,-468 835.72,-462 835.72,-456 835.72,-456 835.72,-444 835.72,-444 835.72,-438 841.72,-432 847.72,-432 847.72,-432 889.72,-432 889.72,-432 895.72,-432 901.72,-438 901.72,-444 901.72,-444 901.72,-456 901.72,-456 901.72,-462 895.72,-468 889.72,-468"/>
<text text-anchor="middle" x="868.72" y="-453" font-family="sans" font-size="10.00">download</text>
<text text-anchor="middle" x="868.72" y="-442" font-family="sans" font-size="10.00">dset: mito</text>
</g>
<!-- 21&#45;&gt;12 -->
<g id="edge30" class="edge">
<title>21&#45;&gt;12</title>
<path fill="none" stroke="grey" stroke-width="2" d="M877.12,-431.7C880.99,-423.73 885.67,-414.1 889.96,-405.26"/>
<polygon fill="grey" stroke="grey" stroke-width="2" points="893.19,-406.63 894.41,-396.1 886.89,-403.57 893.19,-406.63"/>
</g>
<!-- 22 -->
<g id="node23" class="node">
<title>22</title>
<path fill="none" stroke="#61d856" stroke-width="2" d="M961.72,-468C961.72,-468 931.72,-468 931.72,-468 925.72,-468 919.72,-462 919.72,-456 919.72,-456 919.72,-444 919.72,-444 919.72,-438 925.72,-432 931.72,-432 931.72,-432 961.72,-432 961.72,-432 967.72,-432 973.72,-438 973.72,-444 973.72,-444 973.72,-456 973.72,-456 973.72,-462 967.72,-468 961.72,-468"/>
<text text-anchor="middle" x="946.72" y="-447.5" font-family="sans" font-size="10.00">install</text>
</g>
<!-- 22&#45;&gt;12 -->
<g id="edge31" class="edge">
<title>22&#45;&gt;12</title>
<path fill="none" stroke="grey" stroke-width="2" d="M935.84,-431.7C930.72,-423.56 924.52,-413.69 918.87,-404.7"/>
<polygon fill="grey" stroke="grey" stroke-width="2" points="921.75,-402.71 913.47,-396.1 915.83,-406.43 921.75,-402.71"/>
</g>
<!-- 22&#45;&gt;13 -->
<g id="edge33" class="edge">
<title>22&#45;&gt;13</title>
<path fill="none" stroke="grey" stroke-width="2" d="M965.01,-431.7C974.15,-423.05 985.36,-412.45 995.32,-403.03"/>
<polygon fill="grey" stroke="grey" stroke-width="2" points="997.77,-405.52 1002.63,-396.1 992.96,-400.43 997.77,-405.52"/>
</g>
<!-- 22&#45;&gt;15 -->
<g id="edge37" class="edge">
<title>22&#45;&gt;15</title>
<path fill="none" stroke="grey" stroke-width="2" d="M919.58,-434.96C916.64,-433.81 913.65,-432.79 910.72,-432 797.1,-401.49 433.24,-385.02 315.13,-380.38"/>
<polygon fill="grey" stroke="grey" stroke-width="2" points="314.93,-376.87 304.8,-379.98 314.65,-383.87 314.93,-376.87"/>
</g>
<!-- 29 -->
<g id="node30" class="node">
<title>29</title>
<path fill="none" stroke="#56d8a9" stroke-width="2" d="M1066.72,-324C1066.72,-324 980.72,-324 980.72,-324 974.72,-324 968.72,-318 968.72,-312 968.72,-312 968.72,-300 968.72,-300 968.72,-294 974.72,-288 980.72,-288 980.72,-288 1066.72,-288 1066.72,-288 1072.72,-288 1078.72,-294 1078.72,-300 1078.72,-300 1078.72,-312 1078.72,-312 1078.72,-318 1072.72,-324 1066.72,-324"/>
<text text-anchor="middle" x="1023.72" y="-303.5" font-family="sans" font-size="10.00">create_annotations</text>
</g>
<!-- 22&#45;&gt;29 -->
<g id="edge50" class="edge">
<title>22&#45;&gt;29</title>
<path fill="none" stroke="grey" stroke-width="2" d="M952.74,-431.71C959.44,-413.36 971.13,-383.78 984.72,-360 990.07,-350.63 996.79,-340.95 1003.13,-332.47"/>
<polygon fill="grey" stroke="grey" stroke-width="2" points="1005.97,-334.52 1009.28,-324.45 1000.42,-330.26 1005.97,-334.52"/>
</g>
<!-- 23 -->
<g id="node24" class="node">
<title>23</title>
<path fill="none" stroke="#5673d8" stroke-width="2" d="M1049.22,-468C1049.22,-468 1004.22,-468 1004.22,-468 998.22,-468 992.22,-462 992.22,-456 992.22,-456 992.22,-444 992.22,-444 992.22,-438 998.22,-432 1004.22,-432 1004.22,-432 1049.22,-432 1049.22,-432 1055.22,-432 1061.22,-438 1061.22,-444 1061.22,-444 1061.22,-456 1061.22,-456 1061.22,-462 1055.22,-468 1049.22,-468"/>
<text text-anchor="middle" x="1026.72" y="-453" font-family="sans" font-size="10.00">download</text>
<text text-anchor="middle" x="1026.72" y="-442" font-family="sans" font-size="10.00">dset: biccn</text>
</g>
<!-- 23&#45;&gt;13 -->
<g id="edge32" class="edge">
<title>23&#45;&gt;13</title>
<path fill="none" stroke="grey" stroke-width="2" d="M1025.23,-431.7C1024.57,-423.98 1023.78,-414.71 1023.04,-406.11"/>
<polygon fill="grey" stroke="grey" stroke-width="2" points="1026.52,-405.77 1022.18,-396.1 1019.55,-406.37 1026.52,-405.77"/>
</g>
<!-- 24 -->
<g id="node25" class="node">
<title>24</title>
<path fill="none" stroke="#d8a456" stroke-width="2" d="M1060.72,-252C1060.72,-252 982.72,-252 982.72,-252 976.72,-252 970.72,-246 970.72,-240 970.72,-240 970.72,-228 970.72,-228 970.72,-222 976.72,-216 982.72,-216 982.72,-216 1060.72,-216 1060.72,-216 1066.72,-216 1072.72,-222 1072.72,-228 1072.72,-228 1072.72,-240 1072.72,-240 1072.72,-246 1066.72,-252 1060.72,-252"/>
<text text-anchor="middle" x="1021.72" y="-231.5" font-family="sans" font-size="10.00">benchmark_biccn</text>
</g>
<!-- 24&#45;&gt;14 -->
<g id="edge34" class="edge">
<title>24&#45;&gt;14</title>
<path fill="none" stroke="grey" stroke-width="2" d="M1027.15,-215.7C1029.6,-207.9 1032.56,-198.51 1035.28,-189.83"/>
<polygon fill="grey" stroke="grey" stroke-width="2" points="1038.68,-190.69 1038.34,-180.1 1032,-188.59 1038.68,-190.69"/>
</g>
<!-- 25 -->
<g id="node26" class="node">
<title>25</title>
<path fill="none" stroke="#d85656" stroke-width="2" d="M1208.72,-252C1208.72,-252 1102.72,-252 1102.72,-252 1096.72,-252 1090.72,-246 1090.72,-240 1090.72,-240 1090.72,-228 1090.72,-228 1090.72,-222 1096.72,-216 1102.72,-216 1102.72,-216 1208.72,-216 1208.72,-216 1214.72,-216 1220.72,-222 1220.72,-228 1220.72,-228 1220.72,-240 1220.72,-240 1220.72,-246 1214.72,-252 1208.72,-252"/>
<text text-anchor="middle" x="1155.72" y="-231.5" font-family="sans" font-size="10.00">benchmark_pbmc_atac</text>
</g>
<!-- 25&#45;&gt;14 -->
<g id="edge35" class="edge">
<title>25&#45;&gt;14</title>
<path fill="none" stroke="grey" stroke-width="2" d="M1128.32,-215.88C1113.81,-206.81 1095.8,-195.55 1080.13,-185.76"/>
<polygon fill="grey" stroke="grey" stroke-width="2" points="1081.55,-182.52 1071.22,-180.19 1077.84,-188.46 1081.55,-182.52"/>
</g>
<!-- 26 -->
<g id="node27" class="node">
<title>26</title>
<path fill="none" stroke="#5673d8" stroke-width="2" d="M301.22,-468C301.22,-468 254.22,-468 254.22,-468 248.22,-468 242.22,-462 242.22,-456 242.22,-456 242.22,-444 242.22,-444 242.22,-438 248.22,-432 254.22,-432 254.22,-432 301.22,-432 301.22,-432 307.22,-432 313.22,-438 313.22,-444 313.22,-444 313.22,-456 313.22,-456 313.22,-462 307.22,-468 301.22,-468"/>
<text text-anchor="middle" x="277.72" y="-453" font-family="sans" font-size="10.00">download</text>
<text text-anchor="middle" x="277.72" y="-442" font-family="sans" font-size="10.00">dset: pbmc</text>
</g>
<!-- 26&#45;&gt;15 -->
<g id="edge36" class="edge">
<title>26&#45;&gt;15</title>
<path fill="none" stroke="grey" stroke-width="2" d="M277.72,-431.7C277.72,-423.98 277.72,-414.71 277.72,-406.11"/>
<polygon fill="grey" stroke="grey" stroke-width="2" points="281.22,-406.1 277.72,-396.1 274.22,-406.1 281.22,-406.1"/>
</g>
<!-- 27 -->
<g id="node28" class="node">
<title>27</title>
<path fill="none" stroke="#5682d8" stroke-width="2" d="M212.22,-324C212.22,-324 145.22,-324 145.22,-324 139.22,-324 133.22,-318 133.22,-312 133.22,-312 133.22,-300 133.22,-300 133.22,-294 139.22,-288 145.22,-288 145.22,-288 212.22,-288 212.22,-288 218.22,-288 224.22,-294 224.22,-300 224.22,-300 224.22,-312 224.22,-312 224.22,-318 218.22,-324 212.22,-324"/>
<text text-anchor="middle" x="178.72" y="-303.5" font-family="sans" font-size="10.00">download_gtex</text>
</g>
<!-- 27&#45;&gt;18 -->
<g id="edge42" class="edge">
<title>27&#45;&gt;18</title>
<path fill="none" stroke="grey" stroke-width="2" d="M158.69,-287.7C148.59,-278.97 136.18,-268.24 125.2,-258.75"/>
<polygon fill="grey" stroke="grey" stroke-width="2" points="127.36,-255.99 117.51,-252.1 122.79,-261.29 127.36,-255.99"/>
</g>
<!-- 28&#45;&gt;24 -->
<g id="edge44" class="edge">
<title>28&#45;&gt;24</title>
<path fill="none" stroke="grey" stroke-width="2" d="M1119.16,-287.88C1102.06,-278.6 1080.73,-267.03 1062.4,-257.08"/>
<polygon fill="grey" stroke="grey" stroke-width="2" points="1063.85,-253.88 1053.39,-252.19 1060.51,-260.04 1063.85,-253.88"/>
</g>
<!-- 28&#45;&gt;25 -->
<g id="edge46" class="edge">
<title>28&#45;&gt;25</title>
<path fill="none" stroke="grey" stroke-width="2" d="M1151.95,-287.7C1152.5,-279.98 1153.16,-270.71 1153.78,-262.11"/>
<polygon fill="grey" stroke="grey" stroke-width="2" points="1157.27,-262.33 1154.49,-252.1 1150.29,-261.83 1157.27,-262.33"/>
</g>
<!-- 29&#45;&gt;24 -->
<g id="edge45" class="edge">
<title>29&#45;&gt;24</title>
<path fill="none" stroke="grey" stroke-width="2" d="M1023.22,-287.7C1023,-279.98 1022.74,-270.71 1022.49,-262.11"/>
<polygon fill="grey" stroke="grey" stroke-width="2" points="1025.99,-262 1022.2,-252.1 1018.99,-262.2 1025.99,-262"/>
</g>
<!-- 29&#45;&gt;25 -->
<g id="edge47" class="edge">
<title>29&#45;&gt;25</title>
<path fill="none" stroke="grey" stroke-width="2" d="M1056.01,-287.88C1073.58,-278.55 1095.52,-266.92 1114.34,-256.94"/>
<polygon fill="grey" stroke="grey" stroke-width="2" points="1116.11,-259.97 1123.3,-252.19 1112.83,-253.78 1116.11,-259.97"/>
</g>
<!-- 30 -->
<g id="node31" class="node">
<title>30</title>
<path fill="none" stroke="#bed856" stroke-width="2" d="M1195.22,-396C1195.22,-396 1106.22,-396 1106.22,-396 1100.22,-396 1094.22,-390 1094.22,-384 1094.22,-384 1094.22,-372 1094.22,-372 1094.22,-366 1100.22,-360 1106.22,-360 1106.22,-360 1195.22,-360 1195.22,-360 1201.22,-360 1207.22,-366 1207.22,-372 1207.22,-372 1207.22,-384 1207.22,-384 1207.22,-390 1201.22,-396 1195.22,-396"/>
<text text-anchor="middle" x="1150.72" y="-375.5" font-family="sans" font-size="10.00">process_pbmc_atac</text>
</g>
<!-- 30&#45;&gt;28 -->
<g id="edge49" class="edge">
<title>30&#45;&gt;28</title>
<path fill="none" stroke="grey" stroke-width="2" d="M1150.72,-359.7C1150.72,-351.98 1150.72,-342.71 1150.72,-334.11"/>
<polygon fill="grey" stroke="grey" stroke-width="2" points="1154.22,-334.1 1150.72,-324.1 1147.22,-334.1 1154.22,-334.1"/>
</g>
<!-- 31 -->
<g id="node32" class="node">
<title>31</title>
<path fill="none" stroke="#d8d356" stroke-width="2" d="M1195.72,-468C1195.72,-468 1105.72,-468 1105.72,-468 1099.72,-468 1093.72,-462 1093.72,-456 1093.72,-456 1093.72,-444 1093.72,-444 1093.72,-438 1099.72,-432 1105.72,-432 1105.72,-432 1195.72,-432 1195.72,-432 1201.72,-432 1207.72,-438 1207.72,-444 1207.72,-444 1207.72,-456 1207.72,-456 1207.72,-462 1201.72,-468 1195.72,-468"/>
<text text-anchor="middle" x="1150.72" y="-447.5" font-family="sans" font-size="10.00">combine_fragments</text>
</g>
<!-- 31&#45;&gt;30 -->
<g id="edge51" class="edge">
<title>31&#45;&gt;30</title>
<path fill="none" stroke="grey" stroke-width="2" d="M1150.72,-431.7C1150.72,-423.98 1150.72,-414.71 1150.72,-406.11"/>
<polygon fill="grey" stroke="grey" stroke-width="2" points="1154.22,-406.1 1150.72,-396.1 1147.22,-406.1 1154.22,-406.1"/>
</g>
<!-- 32 -->
<g id="node33" class="node">
<title>32</title>
<path fill="none" stroke="#d87556" stroke-width="2" d="M1199.72,-540C1199.72,-540 1101.72,-540 1101.72,-540 1095.72,-540 1089.72,-534 1089.72,-528 1089.72,-528 1089.72,-516 1089.72,-516 1089.72,-510 1095.72,-504 1101.72,-504 1101.72,-504 1199.72,-504 1199.72,-504 1205.72,-504 1211.72,-510 1211.72,-516 1211.72,-516 1211.72,-528 1211.72,-528 1211.72,-534 1205.72,-540 1199.72,-540"/>
<text text-anchor="middle" x="1150.72" y="-519.5" font-family="sans" font-size="10.00">download_pbmc_atac</text>
</g>
<!-- 32&#45;&gt;31 -->
<g id="edge52" class="edge">
<title>32&#45;&gt;31</title>
<path fill="none" stroke="grey" stroke-width="2" d="M1150.72,-503.7C1150.72,-495.98 1150.72,-486.71 1150.72,-478.11"/>
<polygon fill="grey" stroke="grey" stroke-width="2" points="1154.22,-478.1 1150.72,-468.1 1147.22,-478.1 1154.22,-478.1"/>
</g>
</g>
</svg>
